# xmcd CD database file
#
# Track frame offsets:
#	150
#	13548
#	27445
#	41876
#	56798
#	70342
#	84127
#	97449
#	111285
#	126076
#	137015
#	147703
#	162639
#	174128
#	186932
#	199553
#	217906
#	230683
#	253836
#
# Disc length: 3923 seconds
#
# Revision: 1
# Processed by: cddbd v1.5.2PL0 Copyright (c) Steve Scherf et al.
# Submitted via: CDex 1.70beta2
#
DISCID=1f0f5113
DTITLE=Various Guitarists - The Guitarists-Giants of Jazz Disc 1
DYEAR=1900
DGENRE=Jazz
TTITLE0=Rainbow Dreams: Ed Lang 
TTITLE1=Church Street Sobbin’ Blues: Blind Willie Dunn
TTITLE2=It’s Right Here for You: Tom Dorsey
TTITLE3=Beale Street Blues: Joe Venuti-Eddie Lang and Their All-­Star Orchestra
TTITLE4=After You’ve Gone: Joe Venuti-Eddie Lang and Their All­-Star Orchestra 
TTITLE5=Pickin’ My Way: Eddie Lang-Carl Kress 
TTITLE6=Djangology: Django Reinhardt et le Quintette du Hot Club de France avec Stéphane Grappelly 
TTITLE7=China Boy: Stéphane Grappelly and His Hot Four
TTITLE8=Minor Swing: Quintette of the Hot Club of France 
TTITLE9=Montmartre: Rex Stewart and His Feetwarmers
TTITLE10=Finesse: Rex Stewart and His Feetwarmers
TTITLE11=Nuages: Django Reinhardt et le Quintette du Hot Club de France 
TTITLE12=Jeepers Creepers: Oscar Alemán Trio
TTITLE13=Rose Room: Benny Goodman Sextet
TTITLE14=Seven Come Eleven: Benny Goodman Sextet 
TTITLE15=Profoundly Blue: Edmond Hall Celeste Quartet 
TTITLE16=Solo Flight: Benny Goodman and His Orchestra 
TTITLE17=Waitin’ for Benny: Benny Goodman and His Sextet
TTITLE18=Charlie’s Choice: Charlie Christian
EXTD=
EXTT0=
EXTT1=
EXTT2=
EXTT3=
EXTT4=
EXTT5=
EXTT6=
EXTT7=
EXTT8=
EXTT9=
EXTT10=
EXTT11=
EXTT12=
EXTT13=
EXTT14=
EXTT15=
EXTT16=
EXTT17=
EXTT18=
PLAYORDER=
